<?xml version="1.0" encoding="utf-8"?>
<!-- Generator: Adobe Illustrator 26.0.1, SVG Export Plug-In . SVG Version: 6.00 Build 0)  -->
<svg version="1.1" id="Layer_1" xmlns="http://www.w3.org/2000/svg" xmlns:xlink="http://www.w3.org/1999/xlink" x="0px" y="0px"
	 viewBox="0 0 294 64" style="enable-background:new 0 0 294 64;" xml:space="preserve">
<style type="text/css">
	.st0{fill:#8D0709;}
	.st1{fill:#FFFF01;}
	.st2{font-family:'NotoSerif-Bold';}
	.st3{font-size:34.1704px;}
</style>
<rect y="-0.09" class="st0" width="294" height="64.09"/>
<path class="st1" d="M17.78,15.85c0.02-0.07,0.07-0.14,0.06-0.2c-0.38-1.44-0.32-2.88-0.19-4.32c0.18-1.94,0.58-3.87,1.49-5.73
	c0.6-1.23,1.38-2.4,2.63-3.4c0.79-0.64,1.75-1.1,3.02-1.25c0.98-0.11,1.85,0.05,2.61,0.44c0.57,0.29,1.04,0.66,1.54,1.01
	c0.11,0.08,0.15,0.19,0.31,0.27c0.21-0.38,0.58-0.37,0.96-0.37c1.91,0,3.82-0.02,5.73-0.02c10.35,0,20.7,0,31.04,0
	c2.33,0,4.66-0.03,6.99-0.03c6.1-0.01,12.21,0,18.31-0.01c14.71-0.02,29.41-0.04,44.12-0.05c12.61-0.01,25.21-0.02,37.82-0.04
	c8.67-0.01,17.34-0.04,26.01-0.05c11.65-0.02,23.3-0.03,34.96-0.04c9.53-0.01,19.06-0.03,28.59-0.05c0.28,0,0.56,0,0.82,0
	c0.08,0.1,0.14,0.18,0.21,0.28c0.08-0.04,0.15-0.06,0.17-0.09c0.49-0.59,1.06-1.15,1.85-1.58c0.78-0.42,1.64-0.71,2.68-0.68
	c0.95,0.02,1.75,0.29,2.47,0.68c1.14,0.62,1.94,1.43,2.56,2.31c1.09,1.54,1.7,3.18,2.1,4.86c0.41,1.71,0.56,3.43,0.5,5.16
	c-0.02,0.55-0.09,1.1-0.14,1.64c-0.01,0.07,0,0.15,0.11,0.24c0.07-0.08,0.17-0.16,0.21-0.25c0.47-0.87,0.92-1.75,1.66-2.54
	c0.43-0.46,0.91-0.91,1.45-1.32c1.61-1.21,3.48-0.59,4.43,0.38c0.45,0.46,0.72,0.98,0.87,1.53c0.4,1.45,0.36,2.9-0.1,4.34
	c-0.26,0.82-0.54,1.65-0.9,2.46c-0.64,1.44-1.58,2.78-2.99,3.96c-0.05,0.05-0.08,0.11-0.19,0.26c0.27-0.04,0.44-0.05,0.57-0.1
	c0.93-0.36,1.94-0.54,2.99-0.57c1.2-0.04,2.35,0.17,3.41,0.56c2.16,0.8,3.52,2.06,4.43,3.57c1.05,1.73,1.17,3.55,0.97,5.37
	c-0.19,1.72-0.88,3.37-2.37,4.8c-1.5,1.44-3.52,2.32-6.19,2.35c-1.32,0.02-2.56-0.27-3.71-0.72c-0.25-0.1-0.5-0.19-0.74-0.29
	c-0.04,0.03-0.07,0.06-0.11,0.09c0.12,0.1,0.22,0.22,0.35,0.31c1.69,1.15,2.73,2.56,3.54,4.06c0.72,1.33,1.22,2.7,1.41,4.11
	c0.14,1.02,0.16,2.04-0.12,3.04c-0.2,0.71-0.51,1.4-1.26,1.96c-1.07,0.81-2.69,0.99-3.97,0.12c-1.07-0.73-1.79-1.6-2.39-2.52
	c-0.3-0.46-0.54-0.94-0.81-1.4c-0.07-0.12-0.16-0.24-0.31-0.35c-0.18,0.35-0.07,0.7-0.03,1.05c0.09,0.99,0.17,1.97,0,2.96
	c-0.13,0.76-0.17,1.53-0.32,2.29c-0.38,2.05-1.09,4.05-2.62,5.86c-0.7,0.83-1.54,1.59-2.85,2.07c-1.4,0.51-2.96,0.45-4.22-0.24
	c-0.69-0.38-1.27-0.83-1.73-1.34c-0.13-0.15-0.28-0.29-0.43-0.44c-0.33,0-0.66,0-0.98,0c-6.62,0-13.24,0-19.86,0
	c-2.24,0-4.47,0.04-6.71,0.04c-3.63,0.01-7.26,0.01-10.89,0.01c-7.27,0-14.54,0-21.81,0c-13.1,0.01-26.19,0.02-39.29,0.04
	c-2.38,0-4.75,0.04-7.13,0.05c-9.74,0.01-19.48,0-29.22,0.01c-6.64,0.01-13.28,0.03-19.92,0.04c-4.59,0.01-9.17,0-13.76,0
	c-11.35,0.01-22.7,0.03-34.05,0.05c-3.66,0.01-7.32,0.02-10.97,0.02c-6.39,0.01-12.77,0.02-19.16,0.01c-0.61,0-0.92,0.13-1.16,0.5
	c-0.52,0.8-1.3,1.49-2.33,2.02c-1.31,0.68-2.94,0.77-4.46,0.1c-1.21-0.54-2.01-1.3-2.7-2.12c-0.84-1.02-1.36-2.12-1.81-3.25
	c-0.46-1.16-0.69-2.33-0.9-3.51c-0.25-1.47-0.28-2.95-0.16-4.42c0.02-0.23,0.08-0.47,0.11-0.7c0-0.02-0.04-0.05-0.06-0.09
	c-0.29,0.03-0.31,0.2-0.39,0.34c-0.53,1.06-1.16,2.08-2.07,3.03c-0.5,0.52-1.05,1-1.87,1.3c-0.7,0.25-1.38,0.28-2.13,0.04
	c-1-0.32-1.58-0.86-1.95-1.53c-0.5-0.89-0.62-1.83-0.62-2.77c-0.01-1.68,0.47-3.31,1.23-4.9c0.8-1.67,1.9-3.24,3.73-4.53
	c0.13-0.1,0.24-0.21,0.3-0.36c-0.6,0.19-1.18,0.4-1.79,0.58c-2.43,0.69-4.72,0.49-6.85-0.54c-1.6-0.77-2.63-1.84-3.37-3.06
	c-0.64-1.06-1-2.16-1.09-3.29c-0.07-0.84-0.1-1.7,0.01-2.53c0.23-1.82,1.11-3.49,2.88-4.91c0.96-0.77,2.12-1.36,3.55-1.67
	c1.79-0.39,3.53-0.26,5.22,0.27c0.15,0.05,0.3,0.09,0.45,0.12c0.01,0,0.04-0.02,0.14-0.06c-0.11-0.12-0.21-0.25-0.34-0.36
	c-1.7-1.54-2.72-3.27-3.38-5.12C9,17.78,8.7,16.45,8.77,15.09c0.05-0.96,0.26-1.9,0.91-2.78c0.34-0.45,0.86-0.79,1.49-1.03
	c1.08-0.42,1.89-0.27,2.98,0.35c0.92,0.52,1.51,1.23,2.03,1.95c0.47,0.65,0.84,1.33,1.26,1.99c0.06,0.1,0.14,0.2,0.21,0.3
	C17.69,15.86,17.74,15.85,17.78,15.85z M31.62,58.47c0.27,0,0.48,0,0.69,0c9.69-0.01,19.39-0.03,29.08-0.04
	c12.65-0.02,25.31-0.04,37.96-0.05c11.42-0.01,22.84-0.03,34.26-0.04c10.91-0.01,21.81-0.03,32.72-0.05
	c12.42-0.02,24.84-0.03,37.27-0.05c11.23-0.02,22.46-0.04,33.7-0.05c8.51-0.01,17.01,0,25.52,0c0.27,0,0.55,0,0.9,0
	c-0.02-0.17-0.02-0.29-0.06-0.41c-0.22-0.7-0.48-1.4-0.68-2.11c-0.41-1.47-0.56-2.96-0.59-4.45c-0.01-0.86,0.11-1.72,0.23-2.58
	c0.28-2.07,0.94-4.09,1.74-6.08c0.69-1.71,1.45-3.41,2.22-5.1c0.16-0.35,0.11-0.63-0.1-0.95c-0.5-0.72-1-1.45-1.48-2.18
	c-0.49-0.75-0.95-1.5-1.43-2.25c-0.06-0.09-0.17-0.17-0.27-0.28c-0.15,0.07-0.28,0.11-0.37,0.17c-0.57,0.43-1.13,0.88-1.71,1.3
	c-0.91,0.67-1.86,1.32-3.04,1.78c-0.95,0.37-1.9,0.37-2.86,0.06c-0.97-0.32-1.58-0.86-1.97-1.52c-0.72-1.21-0.74-2.45-0.21-3.68
	c0.39-0.9,1.13-1.65,2.39-2.12c0.71-0.26,1.46-0.36,2.21-0.17c0.64,0.17,1.28,0.38,1.84,0.64c1.25,0.58,2.28,1.33,3.25,2.12
	c0.16,0.12,0.33,0.24,0.53,0.38c0.11-0.11,0.18-0.15,0.22-0.2c0.99-1.52,1.98-3.05,2.98-4.57c0.17-0.25,0.16-0.47,0.04-0.73
	c-0.45-0.96-0.9-1.91-1.31-2.87c-0.47-1.08-0.97-2.16-1.35-3.25c-0.47-1.37-0.85-2.76-1.24-4.15c-0.3-1.06-0.41-2.15-0.46-3.23
	c-0.06-1.43,0.14-2.85,0.4-4.27c0.2-1.09,0.5-2.16,1.03-3.2c0.03-0.05,0-0.12,0-0.23c-0.24,0-0.44,0-0.64,0
	c-7.29,0.02-14.59,0.04-21.88,0.05c-12.79,0.02-25.59,0.03-38.38,0.04c-5.83,0-11.65,0-17.48,0.01c-4.73,0.01-9.46,0.04-14.19,0.05
	c-11.44,0.02-22.89,0.03-34.33,0.04c-12.12,0.01-24.24,0.03-36.36,0.04c-1.75,0-3.5,0.01-5.24,0.01C83.85,4.32,72.52,4.34,61.2,4.35
	c-9.86,0.01-19.72,0-29.58,0.01c-0.21,0-0.42,0-0.63,0c-0.28,0.01-0.36,0.13-0.29,0.29c0.08,0.18,0.22,0.35,0.3,0.53
	c0.8,1.81,1.23,3.67,1.41,5.55c0.09,0.92,0.14,1.85,0.05,2.77c-0.03,0.27-0.02,0.53-0.06,0.8c-0.26,1.65-0.62,3.3-1.22,4.91
	c-0.57,1.52-1.17,3.03-1.8,4.54c-0.34,0.83-0.75,1.65-1.14,2.47c-0.13,0.27-0.15,0.51,0.03,0.77c1,1.48,2,2.97,3,4.45
	c0.06,0.09,0.14,0.19,0.23,0.3c0.13-0.06,0.24-0.1,0.32-0.15c0.68-0.51,1.32-1.05,2.04-1.54c0.68-0.47,1.43-0.9,2.31-1.2
	c0.71-0.25,1.47-0.47,2.27-0.33c1.17,0.21,2.1,0.69,2.68,1.41c1.04,1.28,1.27,2.64,0.73,4.05c-0.29,0.76-0.77,1.45-1.77,1.91
	c-0.89,0.41-1.83,0.59-2.89,0.28c-0.8-0.24-1.5-0.57-2.1-0.99c-1.06-0.73-2.09-1.47-3.13-2.21c-0.1-0.07-0.23-0.13-0.37-0.21
	c-0.08,0.09-0.13,0.14-0.17,0.19c-1,1.54-1.99,3.08-3,4.61c-0.18,0.28-0.22,0.52-0.08,0.81c0.53,1.12,1.04,2.24,1.53,3.37
	c1.06,2.45,2.04,4.92,2.45,7.47c0.16,0.98,0.3,1.97,0.36,2.95c0.04,0.7-0.02,1.42-0.14,2.12c-0.22,1.31-0.37,2.62-0.91,3.89
	C31.59,58.24,31.62,58.32,31.62,58.47z M19.43,31.84c0.24-0.4,0.44-0.71,0.63-1.03c0.59-1.01,1.17-2.01,1.78-3.02
	c0.12-0.19,0.1-0.35,0-0.54c-0.38-0.77-0.79-1.54-1.11-2.33c-0.82-2.06-1.61-4.12-2.39-6.19c-0.6-1.58-1.31-3.14-2.42-4.6
	c-0.61-0.8-1.41-1.51-2.7-1.89c-1.06-0.31-2.01-0.15-2.74,0.45c-0.44,0.36-0.7,0.77-0.86,1.22c-0.26,0.75-0.35,1.51-0.28,2.29
	c0.12,1.42,0.44,2.8,1.15,4.14c0.63,1.19,1.52,2.29,2.53,3.35c0.82,0.86,1.59,1.74,2.73,2.44c0.24,0.15,0.42,0.34,0.62,0.51
	c-0.18,0-0.26-0.05-0.34-0.1c-1.26-0.76-2.61-1.4-4.25-1.74c-1.24-0.26-2.48-0.28-3.7,0.01c-1.47,0.35-2.62,1.02-3.5,1.87
	c-1.12,1.08-1.78,2.3-2.06,3.61c-0.21,0.98-0.34,1.96-0.17,2.95c0.24,1.44,0.64,2.84,1.7,4.13c0.74,0.89,1.63,1.69,2.96,2.2
	c2.29,0.88,5.23,0.71,7.53-0.47c0.61-0.31,1.17-0.67,1.75-1.01c-0.43,0.45-0.93,0.86-1.39,1.28c-1.58,1.44-3.02,2.94-4.04,4.6
	C9.63,45.95,9.17,48,9.39,50.11c0.07,0.64,0.25,1.28,0.75,1.85c0.55,0.62,1.29,1.02,2.44,0.94c0.61-0.05,1.09-0.26,1.55-0.5
	c0.96-0.51,1.57-1.19,2.07-1.92c1.23-1.8,1.99-3.71,2.64-5.64c0.26-0.78,0.51-1.56,0.83-2.33c0.72-1.7,1.5-3.39,2.24-5.09
	c0.06-0.14,0.07-0.31,0-0.44c-0.69-1.2-1.41-2.39-2.13-3.58c-0.13-0.21-0.31-0.4-0.48-0.62c-0.81,0.6-1.56,1.16-2.31,1.71
	c-0.79,0.58-1.63,1.12-2.62,1.55c-0.52,0.22-1.08,0.4-1.69,0.37c-1.3-0.05-2.27-0.48-2.93-1.25c-0.77-0.88-1.03-1.85-0.94-2.85
	c0.09-1,0.46-1.95,1.44-2.75c0.98-0.8,2.17-1.14,3.43-0.9c0.66,0.13,1.3,0.35,1.86,0.62c1.27,0.61,2.36,1.37,3.34,2.19
	C19.02,31.59,19.19,31.68,19.43,31.84z M278.33,36.92c0.04-0.03,0.08-0.06,0.12-0.09c0.19,0.16,0.37,0.32,0.58,0.46
	c0.88,0.62,1.9,1.1,3.07,1.44c2.08,0.61,5.09,0.47,6.96-0.78c1.28-0.85,2.16-1.87,2.69-3.02c1.1-2.41,1.17-4.82,0.03-7.23
	c-0.65-1.37-1.73-2.56-3.53-3.41c-1.7-0.8-3.5-0.94-5.43-0.47c-1.4,0.34-2.64,0.85-3.73,1.53c-0.23,0.14-0.48,0.28-0.72,0.41
	c0.06-0.16,0.18-0.28,0.33-0.38c1.16-0.78,2.12-1.66,2.97-2.6c1.31-1.44,2.52-2.9,3.09-4.56c0.46-1.34,0.77-2.68,0.66-4.06
	c-0.06-0.72-0.24-1.43-0.74-2.09c-0.87-1.13-2.37-1.32-3.85-0.64c-0.72,0.33-1.27,0.78-1.71,1.29c-1.1,1.27-1.78,2.66-2.36,4.07
	c-0.72,1.75-1.28,3.53-1.98,5.28c-0.55,1.38-1.19,2.74-1.81,4.1c-0.1,0.22-0.13,0.41,0.01,0.63c0.74,1.2,1.46,2.41,2.19,3.62
	c0.06,0.11,0.18,0.2,0.27,0.29c0.11-0.03,0.17-0.03,0.2-0.05c0.17-0.13,0.34-0.26,0.5-0.39c1.09-0.86,2.23-1.69,3.68-2.28
	c0.54-0.22,1.09-0.42,1.73-0.45c1.31-0.07,2.28,0.35,3.07,1c0.68,0.55,1.06,1.21,1.27,1.91c0.41,1.4,0.17,2.73-1.06,3.91
	c-0.86,0.83-2.57,1.35-4.15,0.66c-0.7-0.3-1.39-0.64-1.99-1.02c-0.89-0.58-1.68-1.22-2.52-1.82c-0.2-0.14-0.42-0.27-0.64-0.41
	c-0.1,0.08-0.16,0.11-0.18,0.15c-0.79,1.31-1.57,2.62-2.36,3.93c-0.13,0.22-0.1,0.43,0.01,0.64c0.27,0.53,0.56,1.06,0.8,1.6
	c0.48,1.06,0.97,2.13,1.39,3.2c0.64,1.65,1.19,3.32,1.85,4.97c0.55,1.36,1.25,2.7,2.34,3.92c0.52,0.59,1.16,1.1,2.07,1.43
	c1.09,0.4,2.39,0.3,3.19-0.5c0.51-0.51,0.78-1.07,0.9-1.67c0.19-0.94,0.18-1.88-0.03-2.81c-0.28-1.24-0.63-2.47-1.37-3.64
	c-1.02-1.61-2.39-3.08-3.93-4.49C279.63,37.99,278.97,37.46,278.33,36.92z M22.43,26.65c0.14-0.22,0.23-0.33,0.29-0.44
	c0.59-1.12,1.18-2.24,1.77-3.37c0.13-0.25,0.1-0.49-0.03-0.73c-0.41-0.75-0.82-1.5-1.18-2.26c-1.18-2.48-1.94-5.01-1.78-7.63
	c0.09-1.44,0.51-2.83,1.48-4.12c0.19-0.25,0.48-0.46,0.77-0.66c0.59-0.39,1.41-0.38,1.98,0.02c0.35,0.24,0.68,0.52,0.92,0.82
	c1.11,1.37,1.45,2.87,1.54,4.4c0.08,1.48-0.26,2.95-0.73,4.38c-0.54,1.65-1.25,3.27-1.91,4.91c-0.12,0.3-0.17,0.57,0.03,0.86
	c0.53,0.8,1.03,1.61,1.55,2.42c0.14,0.22,0.34,0.43,0.54,0.69c0.11-0.1,0.18-0.14,0.21-0.19c0.62-1.33,1.28-2.65,1.83-3.99
	c0.61-1.49,1.15-3,1.55-4.53c0.39-1.49,0.66-2.98,0.62-4.49c-0.03-1.06-0.14-2.13-0.27-3.19c-0.19-1.51-0.78-2.96-1.77-4.33
	c-0.45-0.62-1.02-1.2-1.8-1.66c-1.15-0.68-2.46-1.01-3.99-0.67c-0.82,0.18-1.49,0.51-2.09,0.92c-1.21,0.82-1.94,1.83-2.51,2.91
	c-0.81,1.54-1.1,3.14-1.25,4.75c-0.18,1.84,0.02,3.67,0.43,5.49c0.27,1.19,0.64,2.38,1.04,3.55c0.67,1.95,1.54,3.87,2.48,5.77
	C22.19,26.36,22.28,26.45,22.43,26.65z M267.1,25.01c0.17-0.17,0.27-0.24,0.32-0.32c0.62-0.98,1.23-1.97,1.87-2.94
	c0.17-0.26,0.11-0.49-0.01-0.73c-1.02-2.1-1.85-4.24-2.37-6.42c-0.33-1.41-0.56-2.83-0.22-4.26c0.23-0.98,0.49-1.95,1.15-2.85
	c0.29-0.39,0.63-0.77,1.14-1.06c0.66-0.38,1.28-0.39,1.94,0c0.27,0.16,0.49,0.37,0.68,0.58c1.11,1.23,1.43,2.6,1.61,4
	c0.19,1.49-0.06,2.97-0.45,4.45c-0.51,1.92-1.39,3.77-2.39,5.59c-0.15,0.28-0.19,0.54-0.04,0.82c0.59,1.11,1.17,2.21,1.77,3.32
	c0.07,0.14,0.19,0.27,0.35,0.5c0.2-0.4,0.36-0.69,0.49-0.99c0.7-1.63,1.45-3.24,2.06-4.88c0.44-1.17,0.75-2.36,1.02-3.55
	c0.25-1.08,0.46-2.17,0.52-3.27c0.06-1.14,0.03-2.3-0.14-3.43c-0.23-1.59-0.65-3.16-1.64-4.64c-0.6-0.9-1.37-1.71-2.46-2.37
	c-1.45-0.88-3.53-1.07-5.12-0.28c-1.43,0.71-2.26,1.7-2.89,2.77c-1.03,1.77-1.36,3.64-1.5,5.53c-0.07,0.98-0.01,1.98,0.14,2.96
	c0.25,1.59,0.59,3.17,1.19,4.72c0.31,0.79,0.56,1.59,0.88,2.37c0.39,0.94,0.82,1.86,1.26,2.79C266.51,23.91,266.79,24.4,267.1,25.01
	z M272.52,36.94c-0.17,0.25-0.3,0.39-0.38,0.55c-0.59,1.14-1.19,2.28-1.75,3.42c-0.09,0.18-0.07,0.41,0.02,0.59
	c0.65,1.37,1.41,2.73,1.96,4.12c0.44,1.12,0.67,2.27,0.9,3.42c0.38,1.88,0.17,3.73-0.72,5.53c-0.31,0.62-0.66,1.25-1.47,1.68
	c-0.62,0.34-1.28,0.33-1.89-0.01c-0.63-0.35-1-0.82-1.32-1.31c-0.43-0.65-0.62-1.34-0.86-2.03c-0.45-1.34-0.35-2.69-0.17-4.03
	c0.09-0.7,0.36-1.39,0.55-2.08c0.46-1.7,1.13-3.36,1.92-5c0.18-0.37,0.16-0.69-0.07-1.04c-0.51-0.78-0.98-1.56-1.48-2.34
	c-0.15-0.24-0.35-0.47-0.56-0.74c-0.11,0.12-0.21,0.18-0.25,0.26c-0.28,0.56-0.59,1.13-0.83,1.7c-0.61,1.46-1.26,2.92-1.77,4.4
	c-0.47,1.36-0.86,2.73-1.13,4.11c-0.22,1.13-0.33,2.27-0.24,3.42c0.09,1.16,0.17,2.32,0.49,3.46c0.36,1.27,0.85,2.51,1.82,3.64
	c0.53,0.61,1.14,1.18,2.03,1.59c1.24,0.58,2.53,0.72,3.94,0.29c1.16-0.35,1.96-0.95,2.65-1.63c0.99-0.98,1.57-2.09,2.01-3.24
	c0.58-1.48,0.72-3,0.78-4.52c0.03-0.77-0.04-1.54-0.09-2.31c-0.04-0.55-0.08-1.1-0.21-1.64c-0.25-1.07-0.54-2.13-0.87-3.19
	c-0.68-2.2-1.62-4.34-2.68-6.47C272.78,37.39,272.67,37.22,272.52,36.94z M22.57,38.05c-0.07-0.01-0.13-0.02-0.2-0.03
	c-0.07,0.1-0.16,0.2-0.21,0.31c-0.35,0.73-0.72,1.46-1.02,2.2c-0.54,1.31-1.07,2.63-1.54,3.95c-0.65,1.82-1.08,3.66-1.26,5.52
	c-0.18,1.87-0.05,3.74,0.43,5.59c0.43,1.67,1.18,3.26,2.72,4.64c0.54,0.48,1.17,0.9,1.96,1.19c1.22,0.44,2.48,0.49,3.74,0.05
	c1.28-0.45,2.07-1.2,2.73-2.02c0.2-0.25,0.26-0.56,0.43-0.83c0.16-0.26,0.4-0.49,0.54-0.75c0.85-1.68,1.06-3.43,1.14-5.19
	c0.03-0.78-0.04-1.57-0.14-2.35c-0.13-1-0.24-2-0.52-2.99c-0.35-1.26-0.81-2.51-1.31-3.75c-0.64-1.57-1.38-3.12-2.08-4.68
	c-0.03-0.08-0.13-0.14-0.22-0.23c-0.1,0.08-0.18,0.12-0.22,0.17c-0.66,1.04-1.32,2.08-1.95,3.12c-0.1,0.16-0.09,0.37-0.03,0.54
	c0.14,0.4,0.35,0.78,0.51,1.17c0.58,1.5,1.23,2.99,1.69,4.51c0.47,1.53,0.75,3.1,0.51,4.67c-0.17,1.1-0.46,2.18-1.16,3.18
	c-0.33,0.47-0.69,0.92-1.34,1.25c-0.75,0.38-1.59,0.19-1.99-0.16c-0.3-0.26-0.61-0.53-0.8-0.82c-0.7-1.05-1.18-2.15-1.27-3.3
	c-0.1-1.18-0.19-2.36,0.12-3.53c0.27-1.06,0.52-2.14,0.93-3.18c0.51-1.27,1.17-2.51,1.78-3.76c0.12-0.25,0.15-0.48,0.01-0.73
	c-0.23-0.41-0.43-0.83-0.64-1.24C23.44,39.73,23,38.89,22.57,38.05z M269.97,42.08c-0.13,0.13-0.21,0.18-0.24,0.25
	c-0.13,0.27-0.27,0.53-0.36,0.81c-0.46,1.31-0.96,2.62-1.34,3.94c-0.24,0.83-0.28,1.68-0.42,2.52c-0.17,0.98-0.1,1.95,0.24,2.9
	c0.22,0.61,0.59,1.19,1.35,1.61c0.78,0.43,1.53,0.41,2.2-0.11c0.46-0.35,0.73-0.77,0.84-1.23c0.12-0.56,0.29-1.12,0.26-1.68
	c-0.04-1.1-0.12-2.2-0.32-3.28c-0.32-1.7-0.93-3.36-1.81-4.97C270.25,42.6,270.13,42.37,269.97,42.08z M269.75,20.51
	c0.06,0,0.11-0.01,0.17-0.01c0.09-0.14,0.19-0.28,0.25-0.42c0.43-1.01,0.89-2.01,1.28-3.02c0.43-1.09,0.64-2.21,0.79-3.34
	c0.13-0.96,0.11-1.91,0.03-2.86c-0.05-0.65-0.23-1.27-0.71-1.85c-0.76-0.92-2.08-0.97-2.99-0.12c-0.5,0.47-0.8,0.98-0.97,1.54
	c-0.37,1.22-0.26,2.44-0.06,3.65c0.34,2.01,1.07,3.97,1.91,5.91C269.54,20.18,269.66,20.34,269.75,20.51z M25.01,21.59
	c0.15-0.3,0.29-0.54,0.4-0.79c0.63-1.51,1.15-3.03,1.55-4.58c0.36-1.4,0.43-2.81,0.26-4.22c-0.1-0.86-0.43-1.7-1.41-2.34
	C24.92,9.07,24,9.12,23.3,9.81c-0.5,0.49-0.77,1.05-0.8,1.63c-0.05,1-0.1,2.01,0,3c0.11,1.04,0.29,2.1,0.63,3.12
	c0.43,1.28,1.07,2.53,1.62,3.79C24.78,21.42,24.88,21.47,25.01,21.59z M25.08,43.13c-0.05,0-0.1,0-0.15,0.01
	c-0.15,0.28-0.33,0.55-0.46,0.83c-0.66,1.4-1.26,2.82-1.56,4.28c-0.16,0.77-0.37,1.55-0.41,2.33c-0.04,0.89,0.04,1.78,0.15,2.67
	c0.08,0.61,0.35,1.2,0.93,1.7c0.62,0.53,1.5,0.59,2.25,0.15c0.52-0.31,0.85-0.7,1.09-1.13c0.47-0.85,0.53-1.73,0.52-2.63
	c-0.02-1.23-0.2-2.44-0.58-3.64c-0.44-1.38-0.97-2.74-1.47-4.11C25.32,43.43,25.18,43.28,25.08,43.13z M19.24,32.3
	c-0.19-0.18-0.35-0.37-0.57-0.53c-0.48-0.34-0.98-0.67-1.5-0.98c-0.79-0.47-1.63-0.89-2.61-1.16c-1.55-0.43-3.43-0.29-4.22,1.14
	c-0.26,0.46-0.44,0.96-0.51,1.45c-0.12,0.78,0.06,1.54,0.62,2.24c0.69,0.86,1.9,1.25,3.28,0.95c0.63-0.14,1.23-0.37,1.79-0.62
	c1.34-0.59,2.35-1.42,3.44-2.19C19.07,32.53,19.13,32.42,19.24,32.3z M285.02,31.48c0-0.14,0.02-0.28,0-0.42
	c-0.12-0.69-0.36-1.36-1-1.93c-0.4-0.35-0.91-0.61-1.54-0.68c-0.96-0.1-1.91,0.01-2.76,0.35c-1.44,0.57-2.67,1.3-3.72,2.17
	c-0.38,0.31-0.4,0.38,0.01,0.67c0.82,0.58,1.64,1.16,2.51,1.7c0.67,0.42,1.43,0.76,2.31,0.96c1.71,0.39,3.05,0.06,3.77-1.08
	C284.94,32.67,285.07,32.09,285.02,31.48z M41.08,32.47c0.03-0.62-0.16-1.22-0.51-1.79c-0.79-1.29-2.53-1.62-4.17-1.16
	c-1.85,0.52-3.21,1.47-4.53,2.44c-0.21,0.16-0.23,0.32,0,0.5c0.98,0.73,1.96,1.46,3.14,2.06c0.71,0.36,1.47,0.66,2.34,0.8
	c1.01,0.16,2.13-0.01,2.79-0.64C40.85,34.03,41.06,33.27,41.08,32.47z M257.09,28.39c-1.2-0.02-2.05,0.35-2.61,1.05
	c-0.57,0.71-0.75,1.48-0.68,2.27c0.06,0.7,0.24,1.37,0.85,1.96c0.6,0.57,1.42,0.83,2.47,0.76c0.81-0.06,1.51-0.3,2.17-0.59
	c1.42-0.62,2.54-1.46,3.64-2.31c0.35-0.28,0.35-0.3,0.01-0.55c-0.95-0.71-1.95-1.39-3.13-1.93
	C258.99,28.68,258.11,28.4,257.09,28.39z M27.69,27.42c-0.14,0.27-0.24,0.45-0.33,0.64c-0.66,1.32-1.32,2.64-1.96,3.97
	c-0.07,0.14-0.08,0.31-0.02,0.45c0.73,1.47,1.47,2.94,2.21,4.4c0.03,0.07,0.11,0.12,0.2,0.23c0.12-0.1,0.22-0.16,0.27-0.24
	c0.18-0.27,0.34-0.55,0.52-0.82c0.74-1.15,1.46-2.3,2.24-3.44c0.15-0.22,0.14-0.38,0.01-0.57c-0.94-1.41-1.87-2.83-2.81-4.24
	C27.96,27.69,27.85,27.59,27.69,27.42z M267.14,26.46c-0.16,0.12-0.24,0.16-0.27,0.21c-0.93,1.42-1.84,2.84-2.77,4.25
	c-0.19,0.28-0.18,0.53,0,0.81c0.9,1.36,1.79,2.72,2.69,4.08c0.07,0.1,0.19,0.19,0.34,0.33c0.11-0.14,0.19-0.22,0.23-0.3
	c0.71-1.44,1.41-2.89,2.14-4.33c0.11-0.21,0.06-0.39-0.04-0.59c-0.57-1.11-1.13-2.22-1.7-3.33
	C267.57,27.24,267.37,26.89,267.14,26.46z M22.36,28.37c-0.14,0.15-0.23,0.22-0.28,0.3c-0.57,0.95-1.07,1.91-1.71,2.83
	c-0.4,0.57-0.44,1.05-0.01,1.63c0.64,0.88,1.12,1.82,1.67,2.74c0.09,0.15,0.1,0.34,0.43,0.42c0.06-0.08,0.14-0.16,0.19-0.25
	c0.61-1.07,1.2-2.14,1.84-3.2c0.18-0.3,0.19-0.55,0.01-0.84c-0.53-0.89-1.04-1.78-1.55-2.67C22.77,29.04,22.58,28.74,22.36,28.37z
	 M269.97,32.39c-0.05,0-0.11,0-0.16,0c-0.06,0.08-0.14,0.15-0.18,0.23c-0.27,0.52-0.52,1.04-0.78,1.55
	c-0.38,0.74-0.75,1.48-1.14,2.22c-0.17,0.33-0.14,0.62,0.08,0.94c0.62,0.89,1.17,1.81,1.75,2.71c0.07,0.1,0.18,0.2,0.29,0.32
	c0.09-0.08,0.15-0.11,0.17-0.15c0.68-1.3,1.37-2.59,2.03-3.89c0.08-0.16,0.02-0.37-0.07-0.54c-0.37-0.69-0.77-1.38-1.17-2.06
	C270.53,33.28,270.25,32.83,269.97,32.39z M272.51,35.35c0.15-0.16,0.21-0.21,0.24-0.26c0.69-1.16,1.39-2.33,2.04-3.5
	c0.1-0.17,0.07-0.41-0.03-0.58c-0.63-1.08-1.29-2.15-1.94-3.22c-0.07-0.12-0.2-0.23-0.33-0.38c-0.11,0.11-0.17,0.16-0.2,0.22
	c-0.68,1.2-1.36,2.4-2.01,3.6c-0.08,0.14-0.04,0.34,0.04,0.49c0.61,1.07,1.24,2.12,1.87,3.18
	C272.27,35.03,272.37,35.15,272.51,35.35z M24.97,41.28c0.06,0,0.11,0.01,0.17,0.01c0.08-0.09,0.18-0.17,0.24-0.26
	c0.63-0.98,1.24-1.96,1.88-2.94c0.15-0.22,0.11-0.41-0.01-0.63c-0.66-1.24-1.3-2.48-1.95-3.73c-0.06-0.11-0.15-0.21-0.26-0.37
	c-0.14,0.11-0.25,0.17-0.29,0.24c-0.62,1.08-1.22,2.17-1.84,3.25c-0.12,0.21-0.07,0.39,0.03,0.59c0.44,0.83,0.88,1.65,1.32,2.48
	C24.49,40.37,24.73,40.83,24.97,41.28z M24.93,31.15c0.06,0,0.12-0.01,0.18-0.01c0.27-0.53,0.54-1.06,0.81-1.59
	c0.41-0.81,0.82-1.63,1.25-2.44c0.11-0.22,0.13-0.42-0.01-0.64c-0.62-0.95-1.22-1.9-1.84-2.85c-0.07-0.1-0.19-0.19-0.33-0.33
	c-0.11,0.14-0.19,0.21-0.23,0.29c-0.56,1.06-1.11,2.13-1.66,3.19c-0.21,0.4-0.36,0.79-0.08,1.22c0.47,0.73,0.87,1.49,1.3,2.23
	C24.52,30.54,24.73,30.84,24.93,31.15z M269.82,30.21c0.1-0.1,0.18-0.16,0.22-0.22c0.64-1.09,1.28-2.18,1.89-3.28
	c0.09-0.16,0.04-0.37-0.04-0.54c-0.61-1.2-1.25-2.39-1.88-3.59c-0.04-0.08-0.14-0.14-0.24-0.25c-0.12,0.12-0.22,0.19-0.27,0.27
	c-0.58,0.91-1.14,1.82-1.74,2.72c-0.23,0.34-0.22,0.65-0.04,0.99c0.64,1.21,1.25,2.42,1.88,3.63
	C269.65,30.03,269.73,30.1,269.82,30.21z"/>
<path class="st1" d="M158.05,7.7c0.05,0.37-0.09,0.74-0.3,1.07c-0.27,0.42-0.73,0.43-0.99-0.05c-0.38-0.7-0.36-1.39-0.05-2.1
	c0.1-0.22,0.25-0.41,0.51-0.43c0.28-0.02,0.45,0.18,0.59,0.39C157.97,6.82,158.05,7.23,158.05,7.7z"/>
<path class="st1" d="M86.54,7.67c0.09-0.33,0.16-0.66,0.29-0.97c0.09-0.24,0.28-0.42,0.56-0.43c0.25-0.01,0.4,0.18,0.5,0.37
	c0.39,0.74,0.39,1.5-0.03,2.23c-0.24,0.43-0.74,0.39-1.01-0.06C86.7,8.56,86.6,8.12,86.54,7.67z"/>
<path class="st1" d="M111.02,7.51c0.06-0.4,0.08-0.8,0.33-1.15c0.26-0.36,0.58-0.39,0.89-0.06c0.31,0.33,0.34,0.77,0.37,1.18
	c0.03,0.43-0.07,0.87-0.35,1.23c-0.27,0.35-0.6,0.35-0.88,0C111.1,8.36,111.09,7.93,111.02,7.51z"/>
<path class="st1" d="M74.22,7.85C74.15,8.17,74.09,8.49,74,8.8c-0.08,0.25-0.26,0.43-0.52,0.48c-0.28,0.05-0.43-0.13-0.57-0.33
	c-0.39-0.57-0.38-1.72,0.02-2.26c0.31-0.42,0.62-0.41,0.93,0.01C74.11,7.04,74.18,7.43,74.22,7.85z"/>
<path class="st1" d="M182.52,7.41c-0.03,0.39-0.07,0.8-0.3,1.15c-0.28,0.43-0.62,0.44-0.94,0.03c-0.42-0.55-0.42-1.86,0.02-2.39
	c0.26-0.32,0.64-0.3,0.9,0.05C182.45,6.59,182.48,7,182.52,7.41z"/>
<path class="st1" d="M119.59,7.42c0,0.41-0.05,0.8-0.27,1.14c-0.3,0.46-0.69,0.46-1,0c-0.4-0.59-0.39-1.68,0.03-2.27
	c0.29-0.4,0.69-0.39,0.94,0.03C119.5,6.66,119.58,7.04,119.59,7.42z"/>
<path class="st1" d="M201.89,7.17c0-0.41,0.11-0.77,0.35-1.1c0.27-0.37,0.67-0.36,0.91,0.02c0.45,0.72,0.41,1.47,0.06,2.21
	c-0.11,0.22-0.3,0.45-0.58,0.38c-0.35-0.08-0.53-0.37-0.62-0.69C201.94,7.73,201.93,7.44,201.89,7.17z"/>
<path class="st1" d="M198.41,7.1c-0.01-0.31,0.11-0.68,0.34-1c0.26-0.36,0.55-0.38,0.84-0.04c0.11,0.13,0.19,0.29,0.25,0.44
	c0.21,0.56,0.19,1.13-0.03,1.68c-0.05,0.13-0.13,0.25-0.22,0.35c-0.25,0.27-0.56,0.26-0.81-0.02c-0.28-0.32-0.31-0.74-0.37-1.14
	C198.4,7.31,198.41,7.25,198.41,7.1z"/>
<path class="st1" d="M70.68,7.87c0.03,0.39-0.07,0.77-0.27,1.1c-0.28,0.47-0.73,0.48-0.99,0.01C69.02,8.26,69,7.5,69.4,6.77
	c0.26-0.48,0.75-0.46,1.03,0.02C70.6,7.1,70.67,7.4,70.68,7.87z"/>
<path class="st1" d="M123.06,7.46c0.02,0.4-0.06,0.76-0.27,1.08c-0.32,0.48-0.72,0.48-1.01-0.03c-0.22-0.39-0.3-0.83-0.27-1.26
	c0.03-0.32,0.14-0.64,0.29-0.93c0.23-0.46,0.67-0.47,0.96-0.05C123.02,6.63,123.09,7.04,123.06,7.46z"/>
<path class="st1" d="M114.54,7.48c0.02-0.48,0.07-0.86,0.33-1.18c0.28-0.36,0.66-0.34,0.92,0.03c0.24,0.35,0.33,0.75,0.3,1.15
	c-0.02,0.36-0.11,0.74-0.26,1.07c-0.23,0.49-0.64,0.5-0.98,0.08C114.56,8.26,114.6,7.82,114.54,7.48z"/>
<path class="st1" d="M95.2,7.69c-0.11,0.36-0.19,0.7-0.31,1.03c-0.09,0.23-0.27,0.37-0.54,0.38c-0.26,0.01-0.39-0.17-0.5-0.37
	c-0.38-0.7-0.38-1.41-0.02-2.13c0.12-0.23,0.3-0.39,0.54-0.39c0.25-0.01,0.44,0.18,0.52,0.4C95.02,6.96,95.1,7.32,95.2,7.69z"/>
<path class="st1" d="M65.63,7.85c0-0.45,0.11-0.81,0.32-1.12c0.25-0.37,0.69-0.38,0.93-0.01c0.39,0.61,0.46,1.69-0.01,2.35
	c-0.27,0.38-0.65,0.38-0.91,0c-0.1-0.14-0.16-0.3-0.23-0.45c-0.02-0.05-0.03-0.12-0.03-0.18C65.67,8.22,65.64,8,65.63,7.85z"/>
<path class="st1" d="M161.56,7.59c-0.05,0.5-0.09,0.92-0.41,1.24c-0.29,0.29-0.59,0.27-0.82-0.06c-0.5-0.69-0.43-1.43-0.13-2.17
	c0.03-0.07,0.09-0.13,0.14-0.19c0.31-0.36,0.59-0.36,0.88,0.02C161.5,6.79,161.54,7.23,161.56,7.59z"/>
<path class="st1" d="M149.49,7.68c0.06-0.29,0.12-0.57,0.19-0.86c0.02-0.09,0.07-0.17,0.12-0.25c0.3-0.46,0.78-0.46,1.02,0.04
	c0.33,0.69,0.35,1.4,0.03,2.11c-0.1,0.23-0.28,0.4-0.53,0.41c-0.25,0.01-0.42-0.15-0.55-0.37C149.58,8.43,149.53,8.07,149.49,7.68z"
	/>
<path class="st1" d="M98.67,7.66c-0.02,0.41-0.14,0.76-0.32,1.09c-0.23,0.41-0.73,0.43-0.97,0.01c-0.42-0.71-0.39-1.45-0.06-2.18
	c0.1-0.22,0.28-0.39,0.54-0.39c0.28,0,0.46,0.2,0.55,0.44C98.52,6.97,98.59,7.31,98.67,7.66z"/>
<path class="st1" d="M152.99,7.64c0-0.43,0.14-0.82,0.37-1.18c0.21-0.33,0.56-0.34,0.82-0.05c0.49,0.55,0.52,1.89,0.05,2.45
	c-0.27,0.33-0.67,0.32-0.89-0.04C153.1,8.47,152.98,8.07,152.99,7.64z"/>
<path class="st1" d="M90.12,7.69c0-0.26,0.01-0.72,0.28-1.13c0.32-0.5,0.72-0.31,0.95-0.01c0.4,0.54,0.39,1.8,0,2.33
	c-0.27,0.36-0.67,0.36-0.94,0C90.27,8.68,90.19,8.4,90.12,7.69z"/>
<path class="st1" d="M84.63,7.55c0.05,0.5,0,0.88-0.2,1.23c-0.13,0.23-0.28,0.43-0.57,0.4c-0.27-0.03-0.45-0.21-0.55-0.45
	c-0.25-0.6-0.32-1.2-0.05-1.81c0.08-0.18,0.18-0.36,0.32-0.5c0.23-0.22,0.43-0.2,0.65,0.04c0.24,0.26,0.39,0.56,0.4,0.92
	C84.63,7.47,84.63,7.57,84.63,7.55z"/>
<path class="st1" d="M109.09,7.63c0.01,0.42-0.09,0.83-0.37,1.17c-0.24,0.29-0.62,0.26-0.83-0.04c-0.47-0.68-0.41-1.8-0.04-2.36
	c0.28-0.42,0.63-0.43,0.93-0.02C109,6.67,109.11,7.11,109.09,7.63z"/>
<path class="st1" d="M147.55,7.75c0.03,0.37-0.03,0.72-0.23,1.04c-0.3,0.46-0.64,0.57-1.02,0.05c-0.08-0.11-0.13-0.25-0.17-0.39
	c-0.15-0.56-0.16-1.11,0.07-1.65c0.06-0.14,0.15-0.27,0.26-0.38c0.25-0.24,0.51-0.23,0.72,0.05C147.47,6.84,147.59,7.27,147.55,7.75
	z"/>
<path class="st1" d="M192.98,7.3c0,0.43-0.03,0.84-0.31,1.19c-0.34,0.43-0.76,0.4-0.99-0.09c-0.33-0.71-0.37-1.44,0.01-2.16
	c0.25-0.48,0.66-0.49,0.99-0.05C192.93,6.52,192.98,6.9,192.98,7.3z"/>
<path class="st1" d="M102.12,7.54c-0.02,0.49-0.07,0.92-0.38,1.27c-0.26,0.29-0.61,0.31-0.83,0c-0.47-0.65-0.43-1.91,0.01-2.43
	c0.26-0.31,0.55-0.32,0.82-0.01C102.05,6.72,102.1,7.16,102.12,7.54z"/>
<path class="st1" d="M173.92,7.6c0.12-0.5,0.05-0.94,0.36-1.28c0.33-0.37,0.65-0.35,0.95,0.05c0.24,0.32,0.3,0.7,0.29,1.06
	c0,0.38-0.12,0.77-0.25,1.12c-0.17,0.44-0.78,0.58-1.03,0.02C174.09,8.23,174.01,7.87,173.92,7.6z"/>
<path class="st1" d="M137.08,7.22c-0.05,0.32-0.08,0.64-0.17,0.94c-0.06,0.18-0.2,0.35-0.34,0.48c-0.2,0.17-0.39,0.15-0.59-0.02
	c-0.08-0.07-0.16-0.15-0.21-0.24c-0.37-0.58-0.35-1.65,0.05-2.22c0.28-0.4,0.66-0.41,0.94-0.01C136.96,6.47,137.06,6.82,137.08,7.22
	z"/>
<path class="st1" d="M168.53,7.56c0,0.45-0.07,0.87-0.38,1.22c-0.27,0.3-0.58,0.29-0.82-0.04c-0.33-0.46-0.39-0.98-0.31-1.52
	c0.03-0.24,0.09-0.5,0.2-0.72c0.27-0.53,0.72-0.55,1.05-0.06C168.49,6.78,168.53,7.17,168.53,7.56z"/>
<path class="st1" d="M194.9,7.24c0.06-0.28,0.11-0.57,0.2-0.85c0.05-0.14,0.16-0.27,0.26-0.38c0.21-0.21,0.49-0.2,0.7,0.01
	c0.08,0.08,0.15,0.17,0.19,0.26c0.3,0.69,0.3,1.39-0.03,2.07c-0.28,0.59-0.85,0.4-1.06,0.02C194.98,8.02,194.92,7.64,194.9,7.24z"/>
<path class="st1" d="M81.2,7.83c-0.09,0.33-0.15,0.66-0.27,0.98c-0.08,0.22-0.27,0.4-0.52,0.42c-0.27,0.02-0.44-0.16-0.55-0.37
	C79.5,8.14,79.5,7.41,79.88,6.7c0.26-0.49,0.72-0.48,1.02-0.01C81.08,6.97,81.15,7.28,81.2,7.83z"/>
<path class="st1" d="M179.09,7.45c-0.11,0.37-0.18,0.77-0.37,1.12c-0.24,0.46-0.67,0.44-0.96,0.01c-0.4-0.6-0.42-1.64-0.01-2.26
	c0.3-0.44,0.75-0.45,0.98,0.03C178.9,6.68,178.97,7.05,179.09,7.45z"/>
<path class="st1" d="M124.97,7.41c0.06-0.46,0.11-0.89,0.43-1.24c0.29-0.32,0.62-0.31,0.85,0.06c0.45,0.72,0.47,1.49,0.07,2.22
	c-0.31,0.58-0.71,0.52-1.03,0.02C125.09,8.17,125.07,7.77,124.97,7.41z"/>
<path class="st1" d="M187.96,7.29c-0.05-0.31,0.04-0.68,0.23-1.01c0.11-0.19,0.24-0.39,0.5-0.37c0.25,0.02,0.44,0.16,0.55,0.39
	c0.34,0.71,0.32,1.41-0.01,2.12c-0.11,0.23-0.25,0.41-0.52,0.39c-0.25-0.02-0.42-0.19-0.53-0.41
	C187.98,8.03,187.96,7.93,187.96,7.29z"/>
<path class="st1" d="M172,7.54c0.02,0.45-0.04,0.86-0.35,1.2c-0.29,0.31-0.58,0.29-0.84-0.04c-0.52-0.65-0.38-1.92,0-2.37
	c0.29-0.35,0.6-0.36,0.88,0.01C171.97,6.7,172.03,7.12,172,7.54z"/>
<path class="st1" d="M130.05,7.43c0.03,0.37-0.05,0.74-0.3,1.07c-0.3,0.4-0.66,0.41-0.94,0c-0.09-0.14-0.16-0.3-0.2-0.47
	c-0.15-0.57-0.17-1.14,0.12-1.68c0.12-0.23,0.27-0.45,0.56-0.44c0.27,0.01,0.43,0.21,0.56,0.44C130.03,6.68,130.07,7.03,130.05,7.43
	z"/>
<path class="st1" d="M138.99,7.28c0-0.42,0.08-0.81,0.32-1.15c0.29-0.4,0.54-0.42,0.87-0.04c0.09,0.1,0.16,0.23,0.21,0.36
	c0.17,0.51,0.21,1.04,0.06,1.56c-0.05,0.19-0.16,0.38-0.28,0.53c-0.24,0.28-0.56,0.27-0.8-0.03C139.07,8.15,139,7.72,138.99,7.28z"
	/>
<path class="st1" d="M163.51,7.59c-0.03-0.41,0.04-0.8,0.28-1.15c0.28-0.41,0.68-0.44,0.93-0.01c0.16,0.27,0.25,0.6,0.31,0.92
	c0.07,0.42-0.02,0.84-0.2,1.23c-0.1,0.21-0.22,0.42-0.5,0.44c-0.29,0.02-0.45-0.16-0.59-0.38C163.54,8.3,163.49,7.95,163.51,7.59z"
	/>
<path class="st1" d="M105.6,7.62c0.05,0.37-0.08,0.74-0.29,1.07c-0.26,0.43-0.68,0.43-0.96,0c-0.4-0.6-0.39-1.71,0.02-2.31
	c0.24-0.36,0.6-0.37,0.88-0.02C105.53,6.73,105.62,7.14,105.6,7.62z"/>
<path class="st1" d="M186,7.6c-0.05,0.18-0.12,0.55-0.27,0.88c-0.23,0.48-0.69,0.48-0.98,0.04c-0.41-0.62-0.38-1.66-0.01-2.26
	c0.27-0.44,0.74-0.42,1,0.04C185.93,6.64,185.98,7.03,186,7.6z"/>
<path class="st1" d="M133.53,7.41c0.03,0.35-0.04,0.71-0.26,1.04c-0.27,0.41-0.74,0.43-0.98,0c-0.39-0.71-0.45-1.45-0.04-2.17
	c0.31-0.54,0.76-0.52,1.06,0.02C133.52,6.64,133.55,7.01,133.53,7.41z"/>
<path class="st1" d="M217.48,7.15c-0.07,0.3-0.12,0.61-0.22,0.9c-0.09,0.28-0.28,0.51-0.59,0.52c-0.33,0.02-0.51-0.26-0.61-0.51
	c-0.23-0.61-0.27-1.24,0-1.85c0.04-0.1,0.1-0.2,0.16-0.28c0.26-0.34,0.65-0.34,0.89,0.01C217.35,6.3,217.43,6.71,217.48,7.15z"/>
<path class="st1" d="M76.08,7.77c0.08-0.31,0.13-0.64,0.24-0.94c0.09-0.23,0.25-0.44,0.54-0.46c0.3-0.03,0.47,0.18,0.58,0.4
	c0.35,0.69,0.32,1.39,0.01,2.08c-0.06,0.12-0.17,0.23-0.28,0.31c-0.21,0.16-0.4,0.14-0.59-0.04c-0.29-0.27-0.4-0.62-0.44-1
	c-0.01-0.11,0-0.22,0-0.33C76.11,7.78,76.09,7.78,76.08,7.77z"/>
<path class="st1" d="M144.07,7.76c0.04,0.41-0.07,0.77-0.27,1.09c-0.28,0.46-0.73,0.46-0.99-0.01c-0.41-0.74-0.39-1.5,0.03-2.23
	c0.24-0.42,0.73-0.38,0.97,0.05C144,7.01,144.11,7.38,144.07,7.76z"/>
<path class="st1" d="M227.2,6.9c-0.03,0.39-0.07,0.8-0.3,1.15c-0.28,0.43-0.62,0.44-0.94,0.03c-0.42-0.55-0.42-1.86,0.02-2.39
	c0.26-0.32,0.64-0.3,0.9,0.05C227.13,6.08,227.17,6.49,227.2,6.9z"/>
<path class="st1" d="M246.57,6.66c0-0.41,0.11-0.77,0.35-1.1c0.27-0.37,0.67-0.36,0.91,0.02c0.45,0.72,0.41,1.47,0.06,2.21
	c-0.11,0.22-0.3,0.45-0.58,0.38c-0.35-0.08-0.53-0.37-0.62-0.69C246.63,7.21,246.61,6.93,246.57,6.66z"/>
<path class="st1" d="M243.09,6.58c-0.01-0.31,0.11-0.68,0.34-1c0.26-0.36,0.55-0.38,0.84-0.04c0.11,0.13,0.19,0.29,0.25,0.44
	c0.21,0.56,0.19,1.13-0.03,1.68c-0.05,0.13-0.13,0.25-0.22,0.35c-0.25,0.27-0.56,0.26-0.81-0.02c-0.28-0.32-0.31-0.74-0.37-1.14
	C243.08,6.8,243.09,6.74,243.09,6.58z"/>
<path class="st1" d="M258.65,6.52c-0.04,0.6-0.1,1.01-0.4,1.35c-0.29,0.32-0.52,0.31-0.82-0.01c-0.27-0.29-0.35-0.67-0.35-1.04
	c0-0.43-0.02-0.87,0.25-1.26c0.14-0.2,0.28-0.4,0.55-0.37c0.24,0.03,0.44,0.18,0.52,0.42C258.51,5.96,258.6,6.32,258.65,6.52z"/>
<path class="st1" d="M255.17,6.66c-0.07,0.3-0.12,0.61-0.21,0.91c-0.09,0.28-0.26,0.52-0.58,0.54c-0.31,0.02-0.49-0.21-0.6-0.45
	c-0.32-0.74-0.33-1.48,0.13-2.18c0.22-0.33,0.54-0.33,0.81-0.03C255.05,5.79,255.15,6.2,255.17,6.66z"/>
<path class="st1" d="M237.66,6.78c0,0.43-0.03,0.84-0.31,1.19c-0.34,0.43-0.76,0.4-0.99-0.09c-0.33-0.71-0.37-1.44,0.01-2.16
	c0.25-0.48,0.66-0.49,0.99-0.05C237.61,6.01,237.66,6.39,237.66,6.78z"/>
<path class="st1" d="M218.61,7.08c0.12-0.5,0.05-0.94,0.36-1.28c0.33-0.37,0.65-0.35,0.95,0.05c0.24,0.32,0.3,0.7,0.29,1.06
	c0,0.38-0.12,0.77-0.25,1.12c-0.17,0.44-0.78,0.58-1.03,0.02C218.77,7.72,218.69,7.35,218.61,7.08z"/>
<path class="st1" d="M239.58,6.73c0.06-0.28,0.11-0.57,0.2-0.85c0.05-0.14,0.16-0.27,0.26-0.38c0.21-0.21,0.49-0.2,0.7,0.01
	c0.08,0.08,0.15,0.17,0.19,0.26c0.3,0.69,0.3,1.39-0.03,2.07c-0.28,0.59-0.85,0.4-1.06,0.02C239.66,7.51,239.6,7.13,239.58,6.73z"/>
<path class="st1" d="M223.77,6.94c-0.11,0.37-0.18,0.77-0.37,1.12c-0.24,0.46-0.67,0.44-0.96,0.01c-0.4-0.6-0.42-1.64-0.01-2.26
	c0.3-0.44,0.75-0.45,0.98,0.03C223.58,6.17,223.65,6.54,223.77,6.94z"/>
<path class="st1" d="M232.65,6.78c-0.05-0.31,0.04-0.68,0.23-1.01c0.11-0.19,0.24-0.39,0.5-0.37c0.25,0.02,0.44,0.16,0.55,0.39
	c0.34,0.71,0.32,1.41-0.01,2.12c-0.11,0.23-0.25,0.41-0.52,0.39c-0.25-0.02-0.42-0.19-0.53-0.41
	C232.67,7.52,232.65,7.42,232.65,6.78z"/>
<path class="st1" d="M250.06,6.86c0.04-0.55,0.09-0.93,0.3-1.28c0.26-0.43,0.71-0.44,0.97-0.02c0.43,0.71,0.4,1.45,0.07,2.19
	c-0.1,0.22-0.29,0.4-0.54,0.39c-0.25-0.01-0.44-0.17-0.53-0.41C250.21,7.4,250.12,7.06,250.06,6.86z"/>
<path class="st1" d="M230.68,7.09c-0.05,0.18-0.12,0.55-0.27,0.88c-0.23,0.48-0.69,0.48-0.98,0.04c-0.41-0.62-0.38-1.66-0.01-2.26
	c0.27-0.44,0.74-0.42,1,0.04C230.61,6.13,230.66,6.51,230.68,7.09z"/>
<path class="st1" d="M262.16,6.64c-0.07,0.3-0.12,0.61-0.22,0.9c-0.09,0.28-0.28,0.51-0.59,0.52c-0.33,0.02-0.51-0.26-0.61-0.51
	c-0.23-0.61-0.27-1.24,0-1.85c0.04-0.1,0.1-0.2,0.16-0.28c0.26-0.34,0.65-0.34,0.89,0.01C262.03,5.79,262.12,6.2,262.16,6.64z"/>
<path class="st1" d="M51.78,7.75c0.09-0.33,0.16-0.66,0.29-0.97c0.09-0.24,0.28-0.42,0.56-0.43c0.25-0.01,0.4,0.18,0.5,0.37
	c0.39,0.74,0.39,1.5-0.03,2.23c-0.24,0.43-0.74,0.39-1.01-0.06C51.93,8.64,51.84,8.2,51.78,7.75z"/>
<path class="st1" d="M39.45,7.93c-0.07,0.32-0.13,0.64-0.22,0.95c-0.08,0.25-0.26,0.43-0.52,0.48c-0.28,0.05-0.43-0.13-0.57-0.33
	c-0.39-0.57-0.38-1.72,0.02-2.26c0.31-0.42,0.62-0.41,0.93,0.01C39.34,7.12,39.42,7.51,39.45,7.93z"/>
<path class="st1" d="M35.91,7.95c0.03,0.39-0.07,0.77-0.27,1.1c-0.28,0.47-0.73,0.48-0.99,0.01c-0.4-0.73-0.42-1.49-0.02-2.22
	c0.26-0.48,0.75-0.46,1.03,0.02C35.84,7.18,35.91,7.49,35.91,7.95z"/>
<path class="st1" d="M60.43,7.77c-0.11,0.36-0.19,0.7-0.31,1.03c-0.09,0.23-0.27,0.37-0.54,0.38c-0.26,0.01-0.39-0.17-0.5-0.37
	c-0.38-0.7-0.38-1.41-0.02-2.13c0.12-0.23,0.3-0.39,0.54-0.39c0.25-0.01,0.44,0.18,0.52,0.4C60.25,7.04,60.33,7.4,60.43,7.77z"/>
<path class="st1" d="M63.91,7.74c-0.02,0.41-0.14,0.76-0.32,1.09c-0.23,0.41-0.73,0.43-0.97,0.01c-0.42-0.71-0.39-1.45-0.06-2.18
	c0.1-0.22,0.28-0.39,0.54-0.39c0.28,0,0.46,0.2,0.55,0.44C63.75,7.05,63.82,7.4,63.91,7.74z"/>
<path class="st1" d="M55.35,7.77c0-0.26,0.01-0.72,0.28-1.13c0.32-0.5,0.72-0.31,0.95-0.01c0.4,0.54,0.39,1.8,0,2.33
	c-0.27,0.36-0.67,0.36-0.94,0C55.5,8.76,55.42,8.48,55.35,7.77z"/>
<path class="st1" d="M49.86,7.63c0.05,0.5,0,0.88-0.2,1.23c-0.13,0.23-0.28,0.43-0.57,0.4c-0.27-0.03-0.45-0.21-0.55-0.45
	c-0.25-0.6-0.32-1.2-0.05-1.81c0.08-0.18,0.18-0.36,0.32-0.5c0.23-0.22,0.43-0.2,0.65,0.04c0.24,0.26,0.39,0.56,0.4,0.92
	C49.86,7.56,49.86,7.65,49.86,7.63z"/>
<path class="st1" d="M46.44,7.91c-0.09,0.33-0.15,0.66-0.27,0.98c-0.08,0.22-0.27,0.4-0.52,0.42c-0.27,0.02-0.44-0.16-0.55-0.37
	c-0.37-0.72-0.37-1.44,0.01-2.15c0.26-0.49,0.72-0.48,1.02-0.01C46.32,7.05,46.38,7.36,46.44,7.91z"/>
<path class="st1" d="M41.31,7.85c0.08-0.31,0.13-0.64,0.24-0.94c0.09-0.23,0.25-0.44,0.54-0.46c0.3-0.03,0.47,0.18,0.58,0.4
	c0.35,0.69,0.32,1.39,0.01,2.08c-0.06,0.12-0.17,0.23-0.28,0.31C42.19,9.4,42,9.38,41.81,9.2c-0.29-0.27-0.4-0.62-0.44-1
	c-0.01-0.11,0-0.22,0-0.33C41.35,7.86,41.33,7.86,41.31,7.85z"/>
<path class="st1" d="M157.24,55.24c0.05,0.37-0.09,0.74-0.3,1.07c-0.27,0.42-0.73,0.43-0.99-0.05c-0.38-0.7-0.36-1.39-0.05-2.1
	c0.1-0.22,0.25-0.41,0.51-0.43c0.28-0.02,0.45,0.18,0.59,0.39C157.15,54.35,157.24,54.77,157.24,55.24z"/>
<path class="st1" d="M85.73,55.2c0.09-0.33,0.16-0.66,0.29-0.97c0.09-0.24,0.28-0.42,0.56-0.43c0.25-0.01,0.4,0.18,0.5,0.37
	c0.39,0.74,0.39,1.5-0.03,2.23c-0.24,0.43-0.74,0.39-1.01-0.06C85.88,56.09,85.79,55.65,85.73,55.2z"/>
<path class="st1" d="M110.21,55.05c0.06-0.4,0.08-0.8,0.33-1.15c0.26-0.36,0.58-0.39,0.89-0.06c0.31,0.33,0.34,0.77,0.37,1.18
	c0.03,0.43-0.07,0.87-0.35,1.23c-0.27,0.35-0.6,0.35-0.88,0C110.29,55.89,110.28,55.46,110.21,55.05z"/>
<path class="st1" d="M73.4,55.38c-0.07,0.32-0.13,0.64-0.22,0.95c-0.08,0.25-0.26,0.43-0.52,0.48c-0.28,0.05-0.43-0.13-0.57-0.33
	c-0.39-0.57-0.38-1.72,0.02-2.26c0.31-0.42,0.62-0.41,0.93,0.01C73.29,54.57,73.37,54.96,73.4,55.38z"/>
<path class="st1" d="M181.7,54.95c-0.03,0.39-0.07,0.8-0.3,1.15c-0.28,0.43-0.62,0.44-0.94,0.03c-0.42-0.55-0.42-1.86,0.02-2.39
	c0.26-0.32,0.64-0.3,0.9,0.05C181.63,54.13,181.67,54.53,181.7,54.95z"/>
<path class="st1" d="M118.77,54.96c0,0.41-0.05,0.8-0.27,1.14c-0.3,0.46-0.69,0.46-1,0c-0.4-0.59-0.39-1.68,0.03-2.27
	c0.29-0.4,0.69-0.39,0.94,0.03C118.68,54.2,118.77,54.57,118.77,54.96z"/>
<path class="st1" d="M201.07,54.7c0-0.41,0.11-0.77,0.35-1.1c0.27-0.37,0.67-0.36,0.91,0.02c0.45,0.72,0.41,1.47,0.06,2.21
	c-0.11,0.22-0.3,0.45-0.58,0.38c-0.35-0.08-0.53-0.37-0.62-0.69C201.13,55.26,201.11,54.98,201.07,54.7z"/>
<path class="st1" d="M197.59,54.63c-0.01-0.31,0.11-0.68,0.34-1c0.26-0.36,0.55-0.38,0.84-0.04c0.11,0.13,0.19,0.29,0.25,0.44
	c0.21,0.56,0.19,1.13-0.03,1.68c-0.05,0.13-0.13,0.25-0.22,0.35c-0.25,0.27-0.56,0.26-0.81-0.02c-0.28-0.32-0.31-0.74-0.37-1.14
	C197.58,54.85,197.59,54.78,197.59,54.63z"/>
<path class="st1" d="M69.86,55.41c0.03,0.39-0.07,0.77-0.27,1.1c-0.28,0.47-0.73,0.48-0.99,0.01c-0.4-0.73-0.42-1.49-0.02-2.22
	c0.26-0.48,0.75-0.46,1.03,0.02C69.79,54.63,69.86,54.94,69.86,55.41z"/>
<path class="st1" d="M122.25,54.99c0.02,0.4-0.06,0.76-0.27,1.08c-0.32,0.48-0.72,0.48-1.01-0.03c-0.22-0.39-0.3-0.83-0.27-1.26
	c0.03-0.32,0.14-0.64,0.29-0.93c0.23-0.46,0.67-0.47,0.96-0.05C122.2,54.16,122.27,54.57,122.25,54.99z"/>
<path class="st1" d="M113.72,55.02c0.02-0.48,0.07-0.86,0.33-1.18c0.28-0.36,0.66-0.34,0.92,0.03c0.24,0.35,0.33,0.75,0.3,1.15
	c-0.02,0.36-0.11,0.74-0.26,1.07c-0.23,0.49-0.64,0.5-0.98,0.08C113.74,55.8,113.79,55.35,113.72,55.02z"/>
<path class="st1" d="M94.38,55.22c-0.11,0.36-0.19,0.7-0.31,1.03c-0.09,0.23-0.27,0.37-0.54,0.38c-0.26,0.01-0.39-0.17-0.5-0.37
	c-0.38-0.7-0.38-1.41-0.02-2.13c0.12-0.23,0.3-0.39,0.54-0.39c0.25-0.01,0.44,0.18,0.52,0.4C94.2,54.49,94.28,54.85,94.38,55.22z"/>
<path class="st1" d="M64.81,55.38c0-0.45,0.11-0.81,0.32-1.12c0.25-0.37,0.69-0.38,0.93-0.01c0.39,0.61,0.46,1.69-0.01,2.35
	c-0.27,0.38-0.65,0.38-0.91,0c-0.1-0.14-0.16-0.3-0.23-0.45c-0.02-0.05-0.03-0.12-0.03-0.18C64.85,55.75,64.83,55.53,64.81,55.38z"
	/>
<path class="st1" d="M160.75,55.12c-0.05,0.5-0.09,0.92-0.41,1.24c-0.29,0.29-0.59,0.27-0.82-0.06c-0.5-0.69-0.43-1.43-0.13-2.17
	c0.03-0.07,0.09-0.13,0.14-0.19c0.31-0.36,0.59-0.36,0.88,0.02C160.69,54.33,160.73,54.76,160.75,55.12z"/>
<path class="st1" d="M148.67,55.21c0.06-0.29,0.12-0.57,0.19-0.86c0.02-0.09,0.07-0.17,0.12-0.25c0.3-0.46,0.78-0.46,1.02,0.04
	c0.33,0.69,0.35,1.4,0.03,2.11c-0.1,0.23-0.28,0.4-0.53,0.41c-0.25,0.01-0.42-0.15-0.55-0.37C148.76,55.96,148.71,55.6,148.67,55.21
	z"/>
<path class="st1" d="M97.86,55.19c-0.02,0.41-0.14,0.76-0.32,1.09c-0.23,0.41-0.73,0.43-0.97,0.01c-0.42-0.71-0.39-1.45-0.06-2.18
	c0.1-0.22,0.28-0.39,0.54-0.39c0.28,0,0.46,0.2,0.55,0.44C97.7,54.5,97.77,54.85,97.86,55.19z"/>
<path class="st1" d="M152.17,55.17c0-0.43,0.14-0.82,0.37-1.18c0.21-0.33,0.56-0.34,0.82-0.05c0.49,0.55,0.51,1.89,0.05,2.45
	c-0.27,0.33-0.67,0.32-0.89-0.04C152.28,56,152.16,55.6,152.17,55.17z"/>
<path class="st1" d="M89.3,55.22c0-0.26,0.01-0.72,0.28-1.13c0.32-0.5,0.72-0.31,0.95-0.01c0.4,0.54,0.39,1.8,0,2.33
	c-0.27,0.36-0.67,0.36-0.94,0C89.45,56.21,89.37,55.93,89.3,55.22z"/>
<path class="st1" d="M83.81,55.08c0.05,0.5,0,0.88-0.2,1.23c-0.13,0.23-0.28,0.43-0.57,0.4c-0.27-0.03-0.45-0.21-0.55-0.45
	c-0.25-0.6-0.32-1.2-0.05-1.81c0.08-0.18,0.18-0.36,0.32-0.5c0.23-0.22,0.43-0.2,0.65,0.04c0.24,0.26,0.39,0.56,0.4,0.92
	C83.81,55.01,83.81,55.1,83.81,55.08z"/>
<path class="st1" d="M108.27,55.16c0.01,0.42-0.09,0.83-0.37,1.17c-0.24,0.29-0.62,0.26-0.83-0.04c-0.47-0.68-0.41-1.8-0.04-2.36
	c0.28-0.42,0.63-0.43,0.93-0.02C108.19,54.2,108.29,54.65,108.27,55.16z"/>
<path class="st1" d="M146.73,55.28c0.03,0.37-0.03,0.72-0.23,1.04c-0.3,0.46-0.64,0.57-1.02,0.05c-0.08-0.11-0.13-0.25-0.17-0.39
	c-0.15-0.56-0.16-1.11,0.07-1.65c0.06-0.14,0.15-0.27,0.26-0.38c0.25-0.24,0.51-0.23,0.72,0.05
	C146.66,54.37,146.77,54.81,146.73,55.28z"/>
<path class="st1" d="M192.16,54.83c0,0.43-0.03,0.84-0.31,1.19c-0.34,0.43-0.76,0.4-0.99-0.09c-0.33-0.71-0.37-1.44,0.01-2.16
	c0.25-0.48,0.66-0.49,0.99-0.05C192.11,54.06,192.17,54.43,192.16,54.83z"/>
<path class="st1" d="M101.31,55.07c-0.02,0.49-0.07,0.92-0.38,1.27c-0.26,0.29-0.61,0.31-0.83,0c-0.47-0.65-0.43-1.91,0.01-2.43
	c0.26-0.31,0.55-0.32,0.82-0.01C101.24,54.25,101.28,54.69,101.31,55.07z"/>
<path class="st1" d="M173.11,55.13c0.12-0.5,0.05-0.94,0.36-1.28c0.33-0.37,0.65-0.35,0.95,0.05c0.24,0.32,0.3,0.7,0.29,1.06
	c0,0.38-0.12,0.77-0.25,1.12c-0.17,0.44-0.78,0.58-1.03,0.02C173.27,55.76,173.19,55.4,173.11,55.13z"/>
<path class="st1" d="M136.26,54.75c-0.05,0.32-0.08,0.64-0.17,0.94c-0.06,0.18-0.2,0.35-0.34,0.48c-0.2,0.17-0.39,0.15-0.59-0.02
	c-0.08-0.07-0.16-0.15-0.21-0.24c-0.37-0.58-0.35-1.65,0.05-2.22c0.28-0.4,0.66-0.41,0.94-0.01C136.15,54,136.24,54.36,136.26,54.75
	z"/>
<path class="st1" d="M167.71,55.09c0,0.45-0.07,0.87-0.38,1.22c-0.27,0.3-0.58,0.29-0.82-0.04c-0.33-0.46-0.39-0.98-0.31-1.52
	c0.03-0.24,0.09-0.5,0.2-0.72c0.27-0.53,0.72-0.55,1.05-0.06C167.68,54.31,167.71,54.7,167.71,55.09z"/>
<path class="st1" d="M194.09,54.77c0.06-0.28,0.11-0.57,0.2-0.85c0.05-0.14,0.16-0.27,0.26-0.38c0.21-0.21,0.49-0.2,0.7,0.01
	c0.08,0.08,0.15,0.17,0.19,0.26c0.3,0.69,0.3,1.39-0.03,2.07c-0.28,0.59-0.85,0.4-1.06,0.02C194.16,55.55,194.1,55.18,194.09,54.77z
	"/>
<path class="st1" d="M80.39,55.36c-0.09,0.33-0.15,0.66-0.27,0.98c-0.08,0.22-0.27,0.4-0.52,0.42c-0.27,0.02-0.44-0.16-0.55-0.37
	c-0.37-0.72-0.37-1.44,0.01-2.15c0.26-0.49,0.72-0.48,1.02-0.01C80.27,54.5,80.33,54.81,80.39,55.36z"/>
<path class="st1" d="M178.27,54.99c-0.11,0.37-0.18,0.77-0.37,1.12c-0.24,0.46-0.67,0.44-0.96,0.01c-0.4-0.6-0.42-1.64-0.01-2.26
	c0.3-0.44,0.75-0.45,0.98,0.03C178.08,54.21,178.15,54.59,178.27,54.99z"/>
<path class="st1" d="M124.15,54.95c0.06-0.46,0.11-0.89,0.43-1.24c0.29-0.32,0.62-0.31,0.85,0.06c0.45,0.72,0.47,1.49,0.07,2.22
	c-0.31,0.58-0.71,0.52-1.03,0.02C124.28,55.7,124.25,55.3,124.15,54.95z"/>
<path class="st1" d="M187.15,54.82c-0.05-0.31,0.04-0.68,0.23-1.01c0.11-0.19,0.24-0.39,0.5-0.37c0.25,0.02,0.44,0.16,0.55,0.39
	c0.34,0.71,0.32,1.41-0.01,2.12c-0.11,0.23-0.25,0.41-0.52,0.39c-0.25-0.02-0.42-0.19-0.53-0.41
	C187.17,55.56,187.15,55.46,187.15,54.82z"/>
<path class="st1" d="M171.19,55.08c0.02,0.45-0.04,0.86-0.35,1.2c-0.29,0.31-0.58,0.29-0.84-0.04c-0.52-0.65-0.38-1.92,0-2.37
	c0.29-0.35,0.6-0.36,0.88,0.01C171.16,54.23,171.21,54.66,171.19,55.08z"/>
<path class="st1" d="M129.24,54.96c0.03,0.37-0.05,0.74-0.3,1.07c-0.3,0.4-0.66,0.41-0.94,0c-0.09-0.14-0.16-0.3-0.2-0.47
	c-0.15-0.57-0.17-1.14,0.12-1.68c0.12-0.23,0.27-0.45,0.56-0.44c0.27,0.01,0.43,0.21,0.56,0.44
	C129.21,54.21,129.25,54.57,129.24,54.96z"/>
<path class="st1" d="M204.56,54.91c0.04-0.55,0.09-0.93,0.3-1.28c0.26-0.43,0.71-0.44,0.97-0.02c0.43,0.71,0.4,1.45,0.07,2.19
	c-0.1,0.22-0.29,0.4-0.54,0.39c-0.25-0.01-0.44-0.17-0.53-0.41C204.71,55.45,204.62,55.1,204.56,54.91z"/>
<path class="st1" d="M138.17,54.81c0-0.42,0.08-0.81,0.32-1.15c0.29-0.4,0.54-0.42,0.87-0.04c0.09,0.1,0.16,0.23,0.21,0.36
	c0.17,0.51,0.21,1.04,0.06,1.56c-0.05,0.19-0.16,0.38-0.28,0.53c-0.24,0.28-0.56,0.27-0.8-0.03
	C138.26,55.68,138.19,55.25,138.17,54.81z"/>
<path class="st1" d="M162.7,55.12c-0.03-0.41,0.04-0.8,0.28-1.15c0.28-0.41,0.68-0.44,0.93-0.01c0.16,0.27,0.25,0.6,0.31,0.92
	c0.07,0.42-0.02,0.84-0.2,1.23c-0.1,0.21-0.22,0.42-0.5,0.44c-0.29,0.02-0.45-0.16-0.59-0.38C162.72,55.84,162.68,55.49,162.7,55.12
	z"/>
<path class="st1" d="M104.78,55.16c0.05,0.37-0.08,0.74-0.29,1.07c-0.26,0.43-0.68,0.43-0.96,0c-0.4-0.6-0.39-1.71,0.02-2.31
	c0.24-0.36,0.6-0.37,0.88-0.02C104.72,54.26,104.81,54.68,104.78,55.16z"/>
<path class="st1" d="M185.18,55.14c-0.05,0.18-0.12,0.55-0.27,0.88c-0.23,0.48-0.69,0.48-0.98,0.04c-0.41-0.62-0.38-1.66-0.01-2.26
	c0.27-0.44,0.74-0.42,1,0.04C185.11,54.18,185.16,54.56,185.18,55.14z"/>
<path class="st1" d="M132.72,54.95c0.03,0.35-0.04,0.71-0.26,1.04c-0.27,0.41-0.74,0.43-0.98,0c-0.39-0.71-0.45-1.45-0.04-2.17
	c0.31-0.54,0.76-0.52,1.06,0.02C132.7,54.17,132.73,54.54,132.72,54.95z"/>
<path class="st1" d="M75.26,55.31c0.08-0.31,0.13-0.64,0.24-0.94c0.09-0.23,0.25-0.44,0.54-0.46c0.3-0.03,0.47,0.18,0.58,0.4
	c0.35,0.69,0.32,1.39,0.01,2.08c-0.06,0.12-0.17,0.23-0.28,0.31c-0.21,0.16-0.4,0.14-0.59-0.04c-0.29-0.27-0.4-0.62-0.44-1
	c-0.01-0.11,0-0.22,0-0.33C75.3,55.31,75.28,55.31,75.26,55.31z"/>
<path class="st1" d="M143.25,55.3c0.04,0.41-0.07,0.77-0.27,1.09c-0.28,0.46-0.73,0.46-0.99-0.01c-0.41-0.74-0.39-1.5,0.03-2.23
	c0.24-0.42,0.73-0.38,0.97,0.05C143.19,54.54,143.29,54.91,143.25,55.3z"/>
<path class="st1" d="M226.38,54.43c-0.03,0.39-0.07,0.8-0.3,1.15c-0.28,0.43-0.62,0.44-0.94,0.03c-0.42-0.55-0.42-1.86,0.02-2.39
	c0.26-0.32,0.64-0.3,0.9,0.05C226.32,53.61,226.35,54.02,226.38,54.43z"/>
<path class="st1" d="M245.76,54.19c0-0.41,0.11-0.77,0.35-1.1c0.27-0.37,0.67-0.36,0.91,0.02c0.45,0.72,0.41,1.47,0.06,2.21
	c-0.11,0.22-0.3,0.45-0.58,0.38c-0.35-0.08-0.53-0.37-0.62-0.69C245.81,54.75,245.79,54.46,245.76,54.19z"/>
<path class="st1" d="M242.27,54.12c-0.01-0.31,0.11-0.68,0.34-1c0.26-0.36,0.55-0.38,0.84-0.04c0.11,0.13,0.19,0.29,0.25,0.44
	c0.21,0.56,0.19,1.13-0.03,1.68c-0.05,0.13-0.13,0.25-0.22,0.35c-0.25,0.27-0.56,0.26-0.81-0.02c-0.28-0.32-0.31-0.74-0.37-1.14
	C242.26,54.33,242.27,54.27,242.27,54.12z"/>
<path class="st1" d="M257.84,54.05c-0.04,0.6-0.1,1.01-0.4,1.35c-0.29,0.32-0.52,0.31-0.82-0.01c-0.27-0.29-0.35-0.67-0.35-1.04
	c0-0.43-0.02-0.87,0.25-1.26c0.14-0.2,0.28-0.4,0.55-0.37c0.24,0.03,0.44,0.18,0.52,0.42C257.69,53.5,257.78,53.85,257.84,54.05z"/>
<path class="st1" d="M254.35,54.19c-0.07,0.3-0.12,0.61-0.21,0.91c-0.09,0.28-0.26,0.52-0.58,0.54c-0.31,0.02-0.49-0.21-0.6-0.45
	c-0.32-0.74-0.33-1.48,0.13-2.18c0.22-0.33,0.54-0.33,0.81-0.03C254.23,53.32,254.33,53.73,254.35,54.19z"/>
<path class="st1" d="M236.85,54.32c0,0.43-0.03,0.84-0.31,1.19c-0.34,0.43-0.76,0.4-0.99-0.09c-0.33-0.71-0.37-1.44,0.01-2.16
	c0.25-0.48,0.66-0.49,0.99-0.05C236.79,53.54,236.85,53.92,236.85,54.32z"/>
<path class="st1" d="M217.79,54.62c0.12-0.5,0.05-0.94,0.36-1.28c0.33-0.37,0.65-0.35,0.95,0.05c0.24,0.32,0.3,0.7,0.29,1.06
	c0,0.38-0.12,0.77-0.25,1.12c-0.17,0.44-0.78,0.58-1.03,0.02C217.96,55.25,217.88,54.89,217.79,54.62z"/>
<path class="st1" d="M238.77,54.26c0.06-0.28,0.11-0.57,0.2-0.85c0.05-0.14,0.16-0.27,0.26-0.38c0.21-0.21,0.49-0.2,0.7,0.01
	c0.08,0.08,0.15,0.17,0.19,0.26c0.3,0.69,0.3,1.39-0.03,2.07c-0.28,0.59-0.85,0.4-1.06,0.02C238.84,55.04,238.78,54.66,238.77,54.26
	z"/>
<path class="st1" d="M222.95,54.47c-0.11,0.37-0.18,0.77-0.37,1.12c-0.24,0.46-0.67,0.44-0.96,0.01c-0.4-0.6-0.42-1.64-0.01-2.26
	c0.3-0.44,0.75-0.45,0.98,0.03C222.77,53.7,222.83,54.07,222.95,54.47z"/>
<path class="st1" d="M231.83,54.31c-0.05-0.31,0.04-0.68,0.23-1.01c0.11-0.19,0.24-0.39,0.5-0.37c0.25,0.02,0.44,0.16,0.55,0.39
	c0.34,0.71,0.32,1.41-0.01,2.12c-0.11,0.23-0.25,0.41-0.52,0.39c-0.25-0.02-0.42-0.19-0.53-0.41
	C231.85,55.05,231.83,54.95,231.83,54.31z"/>
<path class="st1" d="M249.24,54.39c0.04-0.55,0.09-0.93,0.3-1.28c0.26-0.43,0.71-0.44,0.97-0.02c0.43,0.71,0.4,1.45,0.07,2.19
	c-0.1,0.22-0.29,0.4-0.54,0.39c-0.25-0.01-0.44-0.17-0.53-0.41C249.39,54.93,249.3,54.59,249.24,54.39z"/>
<path class="st1" d="M229.86,54.62c-0.05,0.18-0.12,0.55-0.27,0.88c-0.23,0.48-0.69,0.48-0.98,0.04c-0.41-0.62-0.38-1.66-0.01-2.26
	c0.27-0.44,0.74-0.42,1,0.04C229.79,53.66,229.84,54.05,229.86,54.62z"/>
<path class="st1" d="M261.35,54.17c-0.07,0.3-0.12,0.61-0.22,0.9c-0.09,0.28-0.28,0.51-0.59,0.52c-0.33,0.02-0.51-0.26-0.61-0.51
	c-0.23-0.61-0.27-1.24,0-1.85c0.04-0.1,0.1-0.2,0.16-0.28c0.26-0.34,0.65-0.34,0.89,0.01C261.22,53.32,261.3,53.73,261.35,54.17z"/>
<path class="st1" d="M50.96,55.28c0.09-0.33,0.16-0.66,0.29-0.97c0.09-0.24,0.28-0.42,0.56-0.43c0.25-0.01,0.4,0.18,0.5,0.37
	c0.39,0.74,0.39,1.5-0.03,2.23c-0.24,0.43-0.74,0.39-1.01-0.06C51.12,56.18,51.02,55.73,50.96,55.28z"/>
<path class="st1" d="M38.63,55.47c-0.07,0.32-0.13,0.64-0.22,0.95c-0.08,0.25-0.26,0.43-0.52,0.48c-0.28,0.05-0.43-0.13-0.57-0.33
	c-0.39-0.57-0.38-1.72,0.02-2.26c0.31-0.42,0.62-0.41,0.93,0.01C38.53,54.66,38.6,55.04,38.63,55.47z"/>
<path class="st1" d="M35.09,55.49c0.03,0.39-0.07,0.77-0.27,1.1c-0.28,0.47-0.73,0.48-0.99,0.01c-0.4-0.73-0.42-1.49-0.02-2.22
	c0.26-0.48,0.75-0.46,1.03,0.02C35.02,54.71,35.09,55.02,35.09,55.49z"/>
<path class="st1" d="M59.62,55.3c-0.11,0.36-0.19,0.7-0.31,1.03c-0.09,0.23-0.27,0.37-0.54,0.38c-0.26,0.01-0.39-0.17-0.5-0.37
	c-0.38-0.7-0.38-1.41-0.02-2.13c0.12-0.23,0.3-0.39,0.54-0.39c0.25-0.01,0.44,0.18,0.52,0.4C59.44,54.57,59.52,54.93,59.62,55.3z"/>
<path class="st1" d="M63.09,55.27c-0.02,0.41-0.14,0.76-0.32,1.09c-0.23,0.41-0.73,0.43-0.97,0.01c-0.42-0.71-0.39-1.45-0.06-2.18
	c0.1-0.22,0.28-0.39,0.54-0.39c0.28,0,0.46,0.2,0.55,0.44C62.93,54.58,63,54.93,63.09,55.27z"/>
<path class="st1" d="M54.54,55.3c0-0.26,0.01-0.72,0.28-1.13c0.32-0.5,0.72-0.31,0.95-0.01c0.4,0.54,0.39,1.8,0,2.33
	c-0.27,0.36-0.67,0.36-0.94,0C54.68,56.29,54.61,56.01,54.54,55.3z"/>
<path class="st1" d="M49.04,55.16c0.05,0.5,0,0.88-0.2,1.23c-0.13,0.23-0.28,0.43-0.57,0.4c-0.27-0.03-0.45-0.21-0.55-0.45
	c-0.25-0.6-0.32-1.2-0.05-1.81c0.08-0.18,0.18-0.36,0.32-0.5c0.23-0.22,0.43-0.2,0.65,0.04c0.24,0.26,0.39,0.56,0.4,0.92
	C49.05,55.09,49.04,55.18,49.04,55.16z"/>
<path class="st1" d="M45.62,55.44c-0.09,0.33-0.15,0.66-0.27,0.98c-0.08,0.22-0.27,0.4-0.52,0.42c-0.27,0.02-0.44-0.16-0.55-0.37
	c-0.37-0.72-0.37-1.44,0.01-2.15c0.26-0.49,0.72-0.48,1.02-0.01C45.5,54.58,45.57,54.89,45.62,55.44z"/>
<path class="st1" d="M40.49,55.39c0.08-0.31,0.13-0.64,0.24-0.94c0.09-0.23,0.25-0.44,0.54-0.46c0.3-0.03,0.47,0.18,0.58,0.4
	c0.35,0.69,0.32,1.39,0.01,2.08c-0.06,0.12-0.17,0.23-0.28,0.31c-0.21,0.16-0.4,0.14-0.59-0.04c-0.29-0.27-0.4-0.62-0.44-1
	c-0.01-0.11,0-0.22,0-0.33C40.53,55.4,40.51,55.39,40.49,55.39z"/>
<text transform="matrix(0.5554 0 0 1 41.8257 44.7666)" class="st1 st2 st3">PASAMALAR MASALA</text>
</svg>
